<svg width="25" height="33" viewBox="0 0 25 33" fill="none" xmlns="http://www.w3.org/2000/svg">
<g clip-path="url(#clip0_11657_604)">
<path d="M21.5 11.6665V28.6665C21.5 29.2165 21.05 29.6665 20.5 29.6665H4.5C3.95 29.6665 3.5 29.2165 3.5 28.6665V11.6665H21.5ZM21.5 8.6665H3.5V4.6665C3.5 4.1165 3.95 3.6665 4.5 3.6665H20.5C21.05 3.6665 21.5 4.1165 21.5 4.6665V8.6665ZM24.5 8.6665V4.6665C24.5 2.46025 22.7062 0.666504 20.5 0.666504H4.5C2.29375 0.666504 0.5 2.46025 0.5 4.6665V8.6665V10.1665V11.6665V28.6665C0.5 30.8728 2.29375 32.6665 4.5 32.6665H20.5C22.7062 32.6665 24.5 30.8728 24.5 28.6665V11.6665V10.1665V8.6665ZM5.5 15.1665C5.5 15.5643 5.65804 15.9459 5.93934 16.2272C6.22064 16.5085 6.60218 16.6665 7 16.6665C7.39782 16.6665 7.77936 16.5085 8.06066 16.2272C8.34196 15.9459 8.5 15.5643 8.5 15.1665C8.5 14.7687 8.34196 14.3871 8.06066 14.1058C7.77936 13.8245 7.39782 13.6665 7 13.6665C6.60218 13.6665 6.22064 13.8245 5.93934 14.1058C5.65804 14.3871 5.5 14.7687 5.5 15.1665ZM7 19.1665C6.60218 19.1665 6.22064 19.3245 5.93934 19.6058C5.65804 19.8871 5.5 20.2687 5.5 20.6665C5.5 21.0643 5.65804 21.4459 5.93934 21.7272C6.22064 22.0085 6.60218 22.1665 7 22.1665C7.39782 22.1665 7.77936 22.0085 8.06066 21.7272C8.34196 21.4459 8.5 21.0643 8.5 20.6665C8.5 20.2687 8.34196 19.8871 8.06066 19.6058C7.77936 19.3245 7.39782 19.1665 7 19.1665ZM5.5 26.1665C5.5 26.9978 6.16875 27.6665 7 27.6665H12.5C13.3313 27.6665 14 26.9978 14 26.1665C14 25.3353 13.3313 24.6665 12.5 24.6665H7C6.16875 24.6665 5.5 25.3353 5.5 26.1665ZM12.5 13.6665C12.1022 13.6665 11.7206 13.8245 11.4393 14.1058C11.158 14.3871 11 14.7687 11 15.1665C11 15.5643 11.158 15.9459 11.4393 16.2272C11.7206 16.5085 12.1022 16.6665 12.5 16.6665C12.8978 16.6665 13.2794 16.5085 13.5607 16.2272C13.842 15.9459 14 15.5643 14 15.1665C14 14.7687 13.842 14.3871 13.5607 14.1058C13.2794 13.8245 12.8978 13.6665 12.5 13.6665ZM11 20.6665C11 21.0643 11.158 21.4459 11.4393 21.7272C11.7206 22.0085 12.1022 22.1665 12.5 22.1665C12.8978 22.1665 13.2794 22.0085 13.5607 21.7272C13.842 21.4459 14 21.0643 14 20.6665C14 20.2687 13.842 19.8871 13.5607 19.6058C13.2794 19.3245 12.8978 19.1665 12.5 19.1665C12.1022 19.1665 11.7206 19.3245 11.4393 19.6058C11.158 19.8871 11 20.2687 11 20.6665ZM18 13.6665C17.6022 13.6665 17.2206 13.8245 16.9393 14.1058C16.658 14.3871 16.5 14.7687 16.5 15.1665C16.5 15.5643 16.658 15.9459 16.9393 16.2272C17.2206 16.5085 17.6022 16.6665 18 16.6665C18.3978 16.6665 18.7794 16.5085 19.0607 16.2272C19.342 15.9459 19.5 15.5643 19.5 15.1665C19.5 14.7687 19.342 14.3871 19.0607 14.1058C18.7794 13.8245 18.3978 13.6665 18 13.6665ZM16.5 20.6665C16.5 21.0643 16.658 21.4459 16.9393 21.7272C17.2206 22.0085 17.6022 22.1665 18 22.1665C18.3978 22.1665 18.7794 22.0085 19.0607 21.7272C19.342 21.4459 19.5 21.0643 19.5 20.6665C19.5 20.2687 19.342 19.8871 19.0607 19.6058C18.7794 19.3245 18.3978 19.1665 18 19.1665C17.6022 19.1665 17.2206 19.3245 16.9393 19.6058C16.658 19.8871 16.5 20.2687 16.5 20.6665ZM18 24.6665C17.6022 24.6665 17.2206 24.8245 16.9393 25.1058C16.658 25.3871 16.5 25.7687 16.5 26.1665C16.5 26.5643 16.658 26.9459 16.9393 27.2272C17.2206 27.5085 17.6022 27.6665 18 27.6665C18.3978 27.6665 18.7794 27.5085 19.0607 27.2272C19.342 26.9459 19.5 26.5643 19.5 26.1665C19.5 25.7687 19.342 25.3871 19.0607 25.1058C18.7794 24.8245 18.3978 24.6665 18 24.6665Z" fill="#345719"/>
</g>
<defs>
<clipPath id="clip0_11657_604">
<rect width="24" height="32" fill="white" transform="translate(0.5 0.666504)"/>
</clipPath>
</defs>
</svg>
