<svg width="18" height="20" viewBox="0 0 18 20" fill="none" xmlns="http://www.w3.org/2000/svg">
<path d="M5.25 0C5.94141 0 6.5 0.558594 6.5 1.25V2.5H11.5V1.25C11.5 0.558594 12.0586 0 12.75 0C13.4414 0 14 0.558594 14 1.25V2.5H15.875C16.9102 2.5 17.75 3.33984 17.75 4.375V6.25H0.25V4.375C0.25 3.33984 1.08984 2.5 2.125 2.5H4V1.25C4 0.558594 4.55859 0 5.25 0ZM0.25 7.5H17.75V18.125C17.75 19.1602 16.9102 20 15.875 20H2.125C1.08984 20 0.25 19.1602 0.25 18.125V7.5ZM2.75 10.625V11.875C2.75 12.2188 3.03125 12.5 3.375 12.5H4.625C4.96875 12.5 5.25 12.2188 5.25 11.875V10.625C5.25 10.2812 4.96875 10 4.625 10H3.375C3.03125 10 2.75 10.2812 2.75 10.625ZM7.75 10.625V11.875C7.75 12.2188 8.03125 12.5 8.375 12.5H9.625C9.96875 12.5 10.25 12.2188 10.25 11.875V10.625C10.25 10.2812 9.96875 10 9.625 10H8.375C8.03125 10 7.75 10.2812 7.75 10.625ZM13.375 10C13.0312 10 12.75 10.2812 12.75 10.625V11.875C12.75 12.2188 13.0312 12.5 13.375 12.5H14.625C14.9688 12.5 15.25 12.2188 15.25 11.875V10.625C15.25 10.2812 14.9688 10 14.625 10H13.375ZM2.75 15.625V16.875C2.75 17.2188 3.03125 17.5 3.375 17.5H4.625C4.96875 17.5 5.25 17.2188 5.25 16.875V15.625C5.25 15.2812 4.96875 15 4.625 15H3.375C3.03125 15 2.75 15.2812 2.75 15.625ZM8.375 15C8.03125 15 7.75 15.2812 7.75 15.625V16.875C7.75 17.2188 8.03125 17.5 8.375 17.5H9.625C9.96875 17.5 10.25 17.2188 10.25 16.875V15.625C10.25 15.2812 9.96875 15 9.625 15H8.375ZM12.75 15.625V16.875C12.75 17.2188 13.0312 17.5 13.375 17.5H14.625C14.9688 17.5 15.25 17.2188 15.25 16.875V15.625C15.25 15.2812 14.9688 15 14.625 15H13.375C13.0312 15 12.75 15.2812 12.75 15.625Z" fill="#003C60"/>
</svg>
