<svg width="18" height="20" viewBox="0 0 18 20" fill="none" xmlns="http://www.w3.org/2000/svg">
<g clip-path="url(#clip0_11657_433)">
<path d="M6.4375 0.9375C6.4375 0.417969 6.01953 0 5.5 0C4.98047 0 4.5625 0.417969 4.5625 0.9375V2.5H3C1.62109 2.5 0.5 3.62109 0.5 5V5.625V7.5V17.5C0.5 18.8789 1.62109 20 3 20H15.5C16.8789 20 18 18.8789 18 17.5V7.5V5.625V5C18 3.62109 16.8789 2.5 15.5 2.5H13.9375V0.9375C13.9375 0.417969 13.5195 0 13 0C12.4805 0 12.0625 0.417969 12.0625 0.9375V2.5H6.4375V0.9375ZM2.375 7.5H16.125V17.5C16.125 17.8438 15.8438 18.125 15.5 18.125H3C2.65625 18.125 2.375 17.8438 2.375 17.5V7.5Z" fill="#AD5816"/>
</g>
<defs>
<clipPath id="clip0_11657_433">
<rect width="17.5" height="20" fill="white" transform="translate(0.5)"/>
</clipPath>
</defs>
</svg>
