<svg width="29" height="32" viewBox="0 0 29 32" fill="none" xmlns="http://www.w3.org/2000/svg">
<path d="M10 1.5C10 0.66875 9.33125 0 8.5 0C7.66875 0 7 0.66875 7 1.5V4H4.5C2.29375 4 0.5 5.79375 0.5 8V9V12V28C0.5 30.2062 2.29375 32 4.5 32H24.5C26.7062 32 28.5 30.2062 28.5 28V12V9V8C28.5 5.79375 26.7062 4 24.5 4H22V1.5C22 0.66875 21.3312 0 20.5 0C19.6688 0 19 0.66875 19 1.5V4H10V1.5ZM3.5 12H8.5V15.5H3.5V12ZM3.5 18.5H8.5V22.5H3.5V18.5ZM11.5 18.5H17.5V22.5H11.5V18.5ZM20.5 18.5H25.5V22.5H20.5V18.5ZM25.5 15.5H20.5V12H25.5V15.5ZM25.5 25.5V28C25.5 28.55 25.05 29 24.5 29H20.5V25.5H25.5ZM17.5 25.5V29H11.5V25.5H17.5ZM8.5 25.5V29H4.5C3.95 29 3.5 28.55 3.5 28V25.5H8.5ZM17.5 15.5H11.5V12H17.5V15.5Z" fill="#345719"/>
</svg>
