<svg width="24" height="25" viewBox="0 0 24 25" fill="none" xmlns="http://www.w3.org/2000/svg">
<g clip-path="url(#clip0_11501_5358)">
<path d="M0 12.5C0 9.3174 1.26428 6.26516 3.51472 4.01472C5.76516 1.76428 8.8174 0.5 12 0.5C15.1826 0.5 18.2348 1.76428 20.4853 4.01472C22.7357 6.26516 24 9.3174 24 12.5C24 15.6826 22.7357 18.7348 20.4853 20.9853C18.2348 23.2357 15.1826 24.5 12 24.5C8.8174 24.5 5.76516 23.2357 3.51472 20.9853C1.26428 18.7348 0 15.6826 0 12.5ZM8.82656 7.39531C8.47031 7.59219 8.25 7.97188 8.25 8.375V16.625C8.25 17.0328 8.47031 17.4078 8.82656 17.6047C9.18281 17.8016 9.61406 17.7969 9.96563 17.5812L16.7156 13.4562C17.0484 13.25 17.2547 12.8891 17.2547 12.4953C17.2547 12.1016 17.0484 11.7406 16.7156 11.5344L9.96563 7.40937C9.61875 7.19844 9.18281 7.18906 8.82656 7.38594V7.39531Z" fill="#003C60"/>
</g>
<defs>
<clipPath id="clip0_11501_5358">
<rect width="24" height="24" fill="white" transform="translate(0 0.5)"/>
</clipPath>
</defs>
</svg>
