<svg width="17" height="13" viewBox="0 0 17 13" fill="none" xmlns="http://www.w3.org/2000/svg">
<path d="M2.16699 0.5C1.33887 0.5 0.666992 1.17188 0.666992 2C0.666992 2.47187 0.888867 2.91562 1.26699 3.2L8.06699 8.3C8.42324 8.56563 8.91074 8.56563 9.26699 8.3L16.067 3.2C16.4451 2.91562 16.667 2.47187 16.667 2C16.667 1.17188 15.9951 0.5 15.167 0.5H2.16699ZM0.666992 4V10.5C0.666992 11.6031 1.56387 12.5 2.66699 12.5H14.667C15.7701 12.5 16.667 11.6031 16.667 10.5V4L9.86699 9.1C9.15449 9.63438 8.17949 9.63438 7.46699 9.1L0.666992 4Z" fill="white"/>
</svg>
