<svg width="16" height="17" viewBox="0 0 16 17" fill="none" xmlns="http://www.w3.org/2000/svg">
<g clip-path="url(#clip0_9702_2268)">
<path d="M4 2.5V5.5H6V2.5H12.0844L13 3.41563V5.5H15V3.41563C15 2.88438 14.7906 2.375 14.4156 2L13.5 1.08438C13.125 0.709375 12.6156 0.5 12.0844 0.5H6C4.89687 0.5 4 1.39688 4 2.5ZM0 5.5V15.5C0 16.0531 0.446875 16.5 1 16.5H2C2.55312 16.5 3 16.0531 3 15.5V5.5C3 4.94688 2.55312 4.5 2 4.5H1C0.446875 4.5 0 4.94688 0 5.5ZM15 6.5H4V15.5C4 16.0531 4.44688 16.5 5 16.5H15C15.5531 16.5 16 16.0531 16 15.5V7.5C16 6.94688 15.5531 6.5 15 6.5ZM8 8.5C8.26522 8.5 8.51957 8.60536 8.70711 8.79289C8.89464 8.98043 9 9.23478 9 9.5C9 9.76522 8.89464 10.0196 8.70711 10.2071C8.51957 10.3946 8.26522 10.5 8 10.5C7.73478 10.5 7.48043 10.3946 7.29289 10.2071C7.10536 10.0196 7 9.76522 7 9.5C7 9.23478 7.10536 8.98043 7.29289 8.79289C7.48043 8.60536 7.73478 8.5 8 8.5ZM11 9.5C11 9.23478 11.1054 8.98043 11.2929 8.79289C11.4804 8.60536 11.7348 8.5 12 8.5C12.2652 8.5 12.5196 8.60536 12.7071 8.79289C12.8946 8.98043 13 9.23478 13 9.5C13 9.76522 12.8946 10.0196 12.7071 10.2071C12.5196 10.3946 12.2652 10.5 12 10.5C11.7348 10.5 11.4804 10.3946 11.2929 10.2071C11.1054 10.0196 11 9.76522 11 9.5ZM12 12.5C12.2652 12.5 12.5196 12.6054 12.7071 12.7929C12.8946 12.9804 13 13.2348 13 13.5C13 13.7652 12.8946 14.0196 12.7071 14.2071C12.5196 14.3946 12.2652 14.5 12 14.5C11.7348 14.5 11.4804 14.3946 11.2929 14.2071C11.1054 14.0196 11 13.7652 11 13.5C11 13.2348 11.1054 12.9804 11.2929 12.7929C11.4804 12.6054 11.7348 12.5 12 12.5ZM7 13.5C7 13.2348 7.10536 12.9804 7.29289 12.7929C7.48043 12.6054 7.73478 12.5 8 12.5C8.26522 12.5 8.51957 12.6054 8.70711 12.7929C8.89464 12.9804 9 13.2348 9 13.5C9 13.7652 8.89464 14.0196 8.70711 14.2071C8.51957 14.3946 8.26522 14.5 8 14.5C7.73478 14.5 7.48043 14.3946 7.29289 14.2071C7.10536 14.0196 7 13.7652 7 13.5Z" fill="white"/>
</g>
<defs>
<clipPath id="clip0_9702_2268">
<rect width="16" height="16" fill="white" transform="translate(0 0.5)"/>
</clipPath>
</defs>
</svg>
