<svg width="20" height="20" viewBox="0 0 20 20" fill="none" xmlns="http://www.w3.org/2000/svg">
<path d="M5.5 0C4.12109 0 3 1.12109 3 2.5V17.5C3 18.8789 4.12109 20 5.5 20H15.5C16.8789 20 18 18.8789 18 17.5V6.25H13C12.3086 6.25 11.75 5.69141 11.75 5V0H5.5ZM13 0V5H18L13 0ZM9.08203 9.77344L10.5 11.8008L11.918 9.77344C12.2148 9.34766 12.8008 9.24609 13.2227 9.54297C13.6445 9.83984 13.75 10.4258 13.4531 10.8477L11.6445 13.4375L13.457 16.0234C13.7539 16.4492 13.6523 17.0312 13.2266 17.3281C12.8008 17.625 12.2188 17.5234 11.9219 17.0977L10.5 15.0703L9.08203 17.0977C8.78516 17.5234 8.19922 17.625 7.77734 17.3281C7.35547 17.0312 7.25 16.4453 7.54688 16.0234L9.35547 13.4375L7.54297 10.8516C7.24609 10.4258 7.34766 9.84375 7.77344 9.54688C8.19922 9.25 8.78125 9.35156 9.07812 9.77734L9.08203 9.77344Z" fill="#003C60"/>
</svg>
