<svg width="20" height="20" viewBox="0 0 20 20" fill="none" xmlns="http://www.w3.org/2000/svg">
<path d="M5.5 0C4.12109 0 3 1.12109 3 2.5V17.5C3 18.8789 4.12109 20 5.5 20H15.5C16.8789 20 18 18.8789 18 17.5V6.25H13C12.3086 6.25 11.75 5.69141 11.75 5V0H5.5ZM13 0V5H18L13 0ZM7.33594 10.043L8.38281 13.5273L9.61719 10C9.75 9.625 10.1055 9.37109 10.5039 9.37109C10.9023 9.37109 11.2578 9.62109 11.3906 10L12.625 13.5273L13.6641 10.043C13.8125 9.54688 14.3359 9.26562 14.832 9.41406C15.3281 9.5625 15.6094 10.0859 15.4609 10.582L13.5859 16.832C13.4688 17.2227 13.1172 17.4922 12.7109 17.5C12.3047 17.5078 11.9375 17.2578 11.8047 16.8711L10.5 13.1484L9.19922 16.8711C9.06641 17.2539 8.69922 17.5078 8.29297 17.5C7.88672 17.4922 7.53125 17.2227 7.41797 16.832L5.54297 10.582C5.39453 10.0859 5.67578 9.5625 6.17188 9.41406C6.66797 9.26562 7.19141 9.54688 7.33984 10.043H7.33594Z" fill="#003C60"/>
</svg>
