<svg width="120" height="98" viewBox="0 0 120 98" fill="none" xmlns="http://www.w3.org/2000/svg">
<g clip-path="url(#clip0_11739_372)">
<path d="M26.1888 42.8503L21.022 55.9087L15.7883 42.8503H13.1966L7.93195 55.9087L2.72989 42.8503H0L7.57847 61.8723H8.21703L14.4608 46.4701L20.6347 61.8723H21.2611L28.8899 42.8503H26.1888Z" fill="white"/>
<path d="M33.5509 49.2859C34.4231 49.2592 35.2917 49.4081 36.1052 49.7238C36.9187 50.0395 37.6605 50.5155 38.2865 51.1235C38.9042 51.719 39.3909 52.4368 39.7155 53.231C40.0402 54.0253 40.1956 54.8785 40.1719 55.7363C40.1929 56.5766 40.033 57.4116 39.7029 58.1846C39.3729 58.9576 38.8805 59.6506 38.2591 60.2165C36.9492 61.419 35.2199 62.0594 33.4429 62.0001C32.5795 62.0247 31.7199 61.8774 30.9139 61.5669C30.1079 61.2564 29.3715 60.7888 28.7477 60.1913C28.1334 59.6125 27.6481 58.9107 27.3232 58.1317C26.9983 57.3526 26.8413 56.5139 26.8622 55.67C26.8409 54.8183 26.9997 53.9716 27.3282 53.1855C27.6568 52.3994 28.1476 51.6916 28.7686 51.1084C29.4058 50.5037 30.1565 50.0312 30.9774 49.7184C31.7982 49.4056 32.6729 49.2586 33.5509 49.2859ZM33.4055 51.4951C32.8654 51.4768 32.3275 51.5712 31.8259 51.7723C31.3243 51.9734 30.87 52.2767 30.492 52.663C30.1127 53.057 29.8164 53.5232 29.6208 54.0339C29.4251 54.5447 29.3341 55.0896 29.3531 55.6362C29.3332 56.1782 29.4266 56.7184 29.6275 57.2221C29.8283 57.7259 30.1321 58.1822 30.5194 58.5618C30.9174 58.9417 31.3876 59.2378 31.9022 59.4326C32.4167 59.6274 32.9651 59.717 33.5149 59.6959C34.0626 59.7162 34.6088 59.6249 35.1201 59.4276C35.6315 59.2303 36.0974 58.9311 36.4896 58.5481C36.8741 58.164 37.1755 57.7048 37.3749 57.1991C37.5743 56.6934 37.6675 56.1521 37.6486 55.6088C37.6643 55.0607 37.565 54.5154 37.357 54.008C37.1491 53.5006 36.8372 53.0424 36.4413 52.663C36.0389 52.2755 35.563 51.9725 35.0415 51.7719C34.5201 51.5713 33.9639 51.4772 33.4055 51.4951Z" fill="white"/>
<path d="M44.6039 49.3174V52.1451L44.7392 51.9283C45.9249 49.9986 47.1109 49.0334 48.297 49.033C49.409 49.1182 50.4463 49.6257 51.1961 50.4515L49.9024 52.629C49.297 51.9318 48.4482 51.4922 47.5296 51.3998C47.1203 51.4098 46.7195 51.5188 46.3615 51.7175C46.0034 51.9161 45.6988 52.1984 45.4736 52.5404C44.8889 53.3185 44.5827 54.2705 44.6039 55.2435V61.7774H42.1123V49.3174H44.6039Z" fill="white"/>
<path d="M52.7617 42.8497H55.2217V61.7774H52.7617V42.8497ZM60.8852 49.3174H63.8317L58.4807 55.4134L64.9051 61.7774H61.5979L55.316 55.4213L60.8852 49.3174Z" fill="white"/>
<path d="M66.8272 49.3174V48.5685C66.8272 46.5502 67.2538 45.045 68.1072 44.053C68.4746 43.5903 68.9416 43.2164 69.4734 42.9591C70.0053 42.7018 70.5882 42.5677 71.179 42.5668C71.7961 42.5797 72.4099 42.6611 73.009 42.8094V45.2159C72.645 45.076 72.2593 45.0014 71.8694 44.9956C71.4948 44.9524 71.1153 45.0012 70.7638 45.1375C70.4122 45.2739 70.0991 45.4938 69.8515 45.7783C69.3982 46.6328 69.2024 47.6006 69.2878 48.5642V49.3174H71.5282V51.5251H69.2878V61.7774H66.8272V51.5251H65.0303V49.3174H66.8272Z" fill="white"/>
<path d="M79.452 49.2859C80.3241 49.2594 81.1927 49.4083 82.0062 49.724C82.8197 50.0397 83.5615 50.5156 84.1876 51.1235C84.8052 51.719 85.292 52.4368 85.6166 53.231C85.9412 54.0253 86.0967 54.8785 86.073 55.7363C86.094 56.5766 85.934 57.4117 85.6039 58.1847C85.2737 58.9578 84.7811 59.6507 84.1595 60.2165C82.8501 61.419 81.1213 62.0594 79.3447 62.0001C78.4812 62.0248 77.6214 61.8776 76.8153 61.5671C76.0091 61.2566 75.2727 60.7889 74.6488 60.1913C74.0344 59.6126 73.5489 58.9108 73.2239 58.1317C72.8989 57.3527 72.7417 56.5139 72.7626 55.67C72.7414 54.8183 72.9003 53.9717 73.2288 53.1856C73.5573 52.3996 74.0481 51.6917 74.6689 51.1084C75.3063 50.5037 76.0571 50.0312 76.8781 49.7184C77.6991 49.4056 78.5739 49.2586 79.452 49.2859ZM79.3073 51.4951C78.7671 51.4768 78.229 51.5712 77.7273 51.7723C77.2256 51.9734 76.7712 52.2767 76.3931 52.663C76.0141 53.0572 75.7179 53.5234 75.5223 54.0341C75.3267 54.5448 75.2355 55.0896 75.2542 55.6362C75.2344 56.1782 75.328 56.7183 75.5288 57.222C75.7296 57.7258 76.0333 58.1821 76.4205 58.5618C76.8185 58.9417 77.2887 59.2378 77.8033 59.4326C78.3178 59.6274 78.8662 59.717 79.416 59.6959C79.9637 59.7162 80.5098 59.6249 81.0212 59.4276C81.5325 59.2303 81.9985 58.9311 82.3907 58.5481C82.7753 58.1641 83.0768 57.7049 83.2764 57.1992C83.4759 56.6935 83.5692 56.1521 83.5504 55.6088C83.5659 55.0608 83.4666 54.5156 83.2588 54.0082C83.051 53.5009 82.7393 53.0427 82.3439 52.663C81.9412 52.2756 81.4651 51.9727 80.9436 51.7722C80.4221 51.5716 79.8657 51.4774 79.3073 51.4951Z" fill="white"/>
<path d="M90.4564 49.3174V52.1451L90.5918 51.9283C91.7775 49.9986 92.9634 49.0334 94.1496 49.033C95.2614 49.118 96.2986 49.6256 97.0479 50.4515L95.7543 52.629C95.149 51.9316 94.3001 51.4919 93.3814 51.3998C92.9721 51.4098 92.5713 51.5188 92.2133 51.7175C91.8553 51.9161 91.5506 52.1984 91.3254 52.5404C90.741 53.3185 90.435 54.2705 90.4564 55.2435V61.7774H87.9648V49.3174H90.4564Z" fill="white"/>
<path d="M107.387 58.8767V61.3113C106.225 61.756 104.993 61.9894 103.748 62.0004C102.891 62.0423 102.035 61.9097 101.231 61.6107C100.427 61.3116 99.6915 60.8524 99.0702 60.2607C98.4776 59.6433 98.0172 58.9114 97.7173 58.1098C97.4173 57.3082 97.2841 56.4539 97.3258 55.599C97.2452 53.8514 97.8559 52.1423 99.0256 50.8415C99.6005 50.2394 100.297 49.7667 101.069 49.455C101.841 49.1432 102.67 48.9995 103.502 49.0334C104.086 49.027 104.668 49.0891 105.238 49.2185C105.889 49.3895 106.525 49.6187 107.135 49.9033V52.5358C106.11 51.8123 104.9 51.3964 103.647 51.3369C103.13 51.3216 102.616 51.4191 102.14 51.6226C101.665 51.8262 101.239 52.1309 100.894 52.5157C100.162 53.3397 99.7757 54.4146 99.8167 55.5162C99.7887 56.0774 99.8775 56.6384 100.078 57.1635C100.278 57.6885 100.585 58.1663 100.979 58.5664C101.4 58.9534 101.894 59.2527 102.432 59.4466C102.97 59.6406 103.541 59.7254 104.112 59.6962C105.248 59.6519 106.364 59.3729 107.387 58.8767Z" fill="white"/>
<path d="M120 55.7536H111.191C111.201 56.8271 111.636 57.853 112.4 58.6065C112.785 58.9627 113.236 59.2394 113.728 59.4208C114.22 59.6022 114.742 59.6847 115.266 59.6636C116.895 59.6651 118.48 59.1336 119.779 58.15V60.5608C119.085 61.035 118.322 61.4003 117.517 61.6438C116.661 61.8734 115.778 61.9823 114.892 61.9671C113.715 62.0215 112.548 61.7239 111.541 61.1123C110.678 60.528 109.975 59.7356 109.498 58.8081C108.969 57.7727 108.706 56.6222 108.731 55.4598C108.658 53.7635 109.236 52.1036 110.347 50.8197C110.875 50.2335 111.526 49.7699 112.252 49.4613C112.978 49.1527 113.763 49.0066 114.552 49.0333C115.302 49.0032 116.049 49.1444 116.737 49.4462C117.424 49.748 118.034 50.2025 118.519 50.7751C119.561 52.0992 120.087 53.7563 120 55.439V55.7536ZM111.254 54.2703H117.571C117.564 53.4254 117.249 52.6121 116.685 51.9834C116.405 51.7105 116.072 51.4983 115.706 51.3601C115.34 51.2218 114.95 51.1604 114.559 51.1798C113.752 51.1497 112.965 51.4383 112.369 51.9834C111.756 52.6021 111.364 53.406 111.254 54.2703Z" fill="white"/>
<path d="M16.5244 75.6772L14.4633 74.4264C13.4006 73.8371 12.4634 73.0455 11.7046 72.0963C11.1558 71.3268 10.8684 70.4016 10.8846 69.4565C10.8609 68.7735 10.9877 68.0937 11.2559 67.4652C11.5241 66.8366 11.9273 66.2748 12.4368 65.8195C13.5529 64.8567 14.9943 64.3563 16.4668 64.4204C18.0192 64.4114 19.5374 64.8764 20.8187 65.7532V68.8445C20.2539 68.2353 19.5732 67.745 18.8165 67.4024C18.0598 67.0598 17.2424 66.8717 16.4121 66.8492C15.6379 66.8171 14.8735 67.0319 14.2293 67.4627C13.9667 67.6324 13.7509 67.8654 13.6018 68.1403C13.4528 68.4153 13.3752 68.7233 13.3762 69.036C13.385 69.6269 13.6111 70.1939 14.0112 70.6288C14.6005 71.2534 15.2847 71.7809 16.0385 72.1921L18.1104 73.4255C20.422 74.8138 21.5767 76.5772 21.5746 78.7158C21.6 79.4072 21.4771 80.0961 21.214 80.736C20.951 81.3759 20.5541 81.952 20.0498 82.4256C18.9674 83.403 17.5444 83.9161 16.0874 83.8542C14.2369 83.8615 12.4376 83.2474 10.9775 82.1102V78.6705C12.4396 80.5297 14.1324 81.4576 16.0557 81.4542C16.825 81.4823 17.5782 81.2297 18.1752 80.7435C18.443 80.5309 18.6585 80.2597 18.8051 79.9508C18.9518 79.6418 19.0256 79.3033 19.021 78.9614C19.021 77.8057 18.1888 76.7109 16.5244 75.6772Z" fill="white"/>
<path d="M29.6356 71.1395C30.5078 71.1128 31.3764 71.2618 32.1899 71.5774C33.0034 71.8931 33.7452 72.3691 34.3712 72.9771C34.9892 73.5724 35.4762 74.2901 35.8011 75.0844C36.126 75.8787 36.2816 76.732 36.258 77.5899C36.2792 78.4302 36.1193 79.2652 35.7893 80.0383C35.4592 80.8113 34.9668 81.5043 34.3452 82.0701C33.0346 83.2727 31.3045 83.9131 29.5269 83.8537C28.6639 83.8783 27.8047 83.731 26.9992 83.4205C26.1936 83.11 25.4578 82.6424 24.8345 82.0449C24.2196 81.4665 23.7336 80.7648 23.4082 79.9857C23.0828 79.2067 22.9254 78.3677 22.9462 77.5236C22.925 76.6718 23.0839 75.8252 23.4126 75.0391C23.7412 74.253 24.2322 73.5452 24.8532 72.962C25.4905 72.3574 26.2413 71.885 27.0621 71.5722C27.883 71.2594 28.7576 71.1123 29.6356 71.1395ZM29.4923 73.3487C28.9521 73.33 28.4139 73.4243 27.9121 73.6254C27.4104 73.8265 26.956 74.13 26.5782 74.5166C26.1987 74.9105 25.9023 75.3767 25.7066 75.8875C25.511 76.3982 25.4201 76.9432 25.4393 77.4898C25.4197 78.0317 25.5132 78.5717 25.7139 79.0754C25.9146 79.5791 26.218 80.0355 26.6048 80.4154C27.0028 80.7955 27.4732 81.0917 27.9879 81.2865C28.5026 81.4814 29.0511 81.5708 29.601 81.5495C30.1487 81.5697 30.6949 81.4784 31.2062 81.2811C31.7176 81.0838 32.1835 80.7846 32.5757 80.4017C32.96 80.0175 33.2612 79.5582 33.4605 79.0526C33.6598 78.5469 33.7529 78.0056 33.734 77.4624C33.7495 76.9144 33.6502 76.3692 33.4424 75.8619C33.2346 75.3545 32.9229 74.8963 32.5275 74.5166C32.1251 74.1293 31.6492 73.8264 31.1279 73.6258C30.6067 73.4252 30.0506 73.331 29.4923 73.3487Z" fill="white"/>
<path d="M40.8249 64.7042H38.3643V83.6319H40.8249V64.7042Z" fill="white"/>
<path d="M52.1137 83.6313V82.0478C51.6065 82.6046 50.995 83.0564 50.314 83.3778C49.6861 83.6845 48.9977 83.8471 48.2989 83.8538C47.5321 83.8593 46.7783 83.6551 46.1191 83.2633C45.4708 82.8904 44.9465 82.335 44.6116 81.6662C44.2035 80.5979 44.0296 79.4543 44.1019 78.3129V71.1713H46.5618V78.2797C46.4774 79.2299 46.6742 80.184 47.1276 81.0232C47.3698 81.304 47.6767 81.5216 48.0217 81.6572C48.3668 81.7928 48.7396 81.8424 49.1081 81.8016C49.7129 81.7886 50.3049 81.6243 50.8299 81.3237C51.3549 81.0231 51.7963 80.5957 52.1137 80.0806V71.1713H54.5737V83.6313H52.1137Z" fill="white"/>
<path d="M56.5205 73.1354L61.1553 68.5853V71.1711H65.1011V73.3795H61.1553V79.5015C61.1553 80.9308 61.7468 81.6451 62.9299 81.6444C63.9266 81.6105 64.8951 81.305 65.731 80.7609V83.0565C64.7853 83.5879 63.7172 83.863 62.6325 83.8543C61.6033 83.8896 60.5986 83.5358 59.8184 82.8635C59.5899 82.6719 59.3939 82.4446 59.2382 82.1902C59.0612 81.8864 58.9306 81.5577 58.8509 81.2153C58.7191 80.4561 58.6668 79.6854 58.6946 78.9154V73.3795H56.5205V73.1354Z" fill="white"/>
<path d="M68.9163 65.9031C69.1084 65.9001 69.2993 65.9356 69.4776 66.0074C69.6559 66.0793 69.818 66.1861 69.9544 66.3215C70.0938 66.4529 70.2043 66.612 70.2786 66.7885C70.353 66.9651 70.3897 67.1553 70.3863 67.3469C70.3882 67.5384 70.3508 67.7284 70.2766 67.905C70.2023 68.0816 70.0926 68.2411 69.9544 68.3737C69.8199 68.5126 69.6584 68.6226 69.4799 68.6969C69.3014 68.7712 69.1096 68.8082 68.9163 68.8057C68.7283 68.8055 68.5424 68.7664 68.3703 68.6908C68.1982 68.6152 68.0436 68.5048 67.9163 68.3665C67.7793 68.2344 67.6704 68.076 67.5962 67.9008C67.522 67.7256 67.4839 67.5372 67.4844 67.3469C67.4851 67.1589 67.5238 66.973 67.598 66.8003C67.6722 66.6276 67.7805 66.4716 67.9163 66.3417C68.0438 66.2036 68.1984 66.0933 68.3705 66.0179C68.5425 65.9424 68.7284 65.9033 68.9163 65.9031ZM67.7047 71.1711H70.1653V83.6311H67.7047V71.1711Z" fill="white"/>
<path d="M78.8231 71.1395C79.6953 71.1126 80.564 71.2614 81.3775 71.5771C82.1911 71.8928 82.9328 72.3689 83.5587 72.9771C84.1768 73.5723 84.6639 74.29 84.989 75.0843C85.314 75.8785 85.4697 76.7319 85.4462 77.5898C85.467 78.4303 85.3068 79.2654 84.9764 80.0384C84.6459 80.8115 84.1531 81.5044 83.5313 82.0701C82.2224 83.2727 80.4937 83.9132 78.7173 83.8537C77.8536 83.8783 76.9935 83.7312 76.1871 83.4206C75.3808 83.1101 74.6441 82.6425 74.0199 82.0449C73.4054 81.4662 72.9198 80.7644 72.5948 79.9854C72.2698 79.2063 72.1127 78.3675 72.1337 77.5236C72.1124 76.6716 72.2715 75.8247 72.6005 75.0385C72.9296 74.2524 73.4211 73.5447 74.0429 72.962C74.6796 72.3571 75.43 71.8846 76.2505 71.5718C77.071 71.259 77.9454 71.112 78.8231 71.1395ZM78.6777 73.3486C78.1376 73.3304 77.5996 73.4248 77.098 73.6259C76.5964 73.827 76.1422 74.1303 75.7642 74.5166C75.3852 74.9107 75.0893 75.377 74.8939 75.8877C74.6985 76.3984 74.6076 76.9432 74.6268 77.4897C74.6069 78.0317 74.7002 78.5718 74.9009 79.0755C75.1016 79.5793 75.4052 80.0356 75.7923 80.4154C76.1903 80.7951 76.6604 81.0912 77.1748 81.286C77.6892 81.4808 78.2374 81.5704 78.7871 81.5495C79.3348 81.5698 79.881 81.4786 80.3923 81.2813C80.9037 81.0839 81.3696 80.7847 81.7618 80.4017C82.1464 80.0176 82.4479 79.5584 82.6474 79.0527C82.847 78.547 82.9403 78.0057 82.9215 77.4624C82.9372 76.9143 82.8379 76.369 82.6301 75.8617C82.4223 75.3543 82.1106 74.8961 81.715 74.5166C81.3123 74.1289 80.8361 73.8258 80.3145 73.6252C79.7928 73.4246 79.2363 73.3306 78.6777 73.3486Z" fill="white"/>
<path d="M89.8802 71.1711V72.6854C90.338 72.1333 90.9097 71.6868 91.556 71.3763C92.2024 71.0659 92.9083 70.8988 93.6252 70.8866C94.3881 70.8837 95.1368 71.0928 95.7878 71.4908C96.445 71.8843 96.9733 72.4608 97.3082 73.1498C97.719 74.2113 97.8965 75.3489 97.8287 76.4851V83.6311H95.3681V76.5038C95.446 75.5526 95.2438 74.5994 94.7864 73.7618C94.5565 73.473 94.258 73.2463 93.9182 73.1023C93.5783 72.9583 93.2079 72.9016 92.8405 72.9374C92.2406 72.9528 91.6545 73.1201 91.1368 73.4235C90.6191 73.727 90.1868 74.1568 89.8802 74.6727V83.6311H87.3584V71.1711H89.8802Z" fill="white"/>
<path d="M100.661 82.7465V80.0988C101.329 80.5716 102.046 80.9695 102.801 81.2855C103.379 81.5531 104.004 81.7074 104.64 81.7399C105.112 81.7527 105.577 81.6191 105.97 81.3575C106.134 81.2643 106.271 81.131 106.368 80.9701C106.466 80.8092 106.521 80.626 106.528 80.438C106.533 80.2698 106.503 80.1024 106.441 79.9459C106.379 79.7894 106.286 79.6472 106.168 79.5278C105.692 79.1223 105.173 78.7721 104.618 78.4837C103.451 77.9153 102.393 77.1447 101.493 76.2076C101.019 75.6262 100.759 74.8994 100.756 74.1489C100.746 73.6967 100.842 73.2483 101.036 72.8399C101.231 72.4314 101.518 72.0743 101.876 71.7972C102.7 71.1645 103.721 70.8423 104.759 70.887C106.077 70.9129 107.367 71.2668 108.514 71.9167V74.357C107.448 73.6127 106.207 73.1566 104.913 73.0328C104.504 73.014 104.099 73.1208 103.753 73.3389C103.616 73.4253 103.504 73.5456 103.426 73.6881C103.349 73.8306 103.31 73.9905 103.313 74.1525C103.319 74.311 103.358 74.4665 103.426 74.6096C103.495 74.7527 103.591 74.8804 103.711 74.9849C104.137 75.3595 104.608 75.6795 105.114 75.9376L105.996 76.4387C108.075 77.6161 109.115 78.9198 109.115 80.3501C109.125 80.8347 109.021 81.3148 108.813 81.7522C108.604 82.1896 108.296 82.5723 107.913 82.8696C107.033 83.5523 105.939 83.901 104.827 83.854C104.158 83.8617 103.492 83.7826 102.844 83.6185C102.092 83.3916 101.362 83.0998 100.661 82.7465Z" fill="white"/>
<path d="M27.977 37.6015C26.1001 34.2154 23.6342 29.7699 23.2149 29.0139C23.8659 27.839 29.4559 17.7588 30.106 16.5848H44.04L50.8528 28.8746C50.0419 30.3366 47.7596 34.4533 46.014 37.6015H49.0541L53.0837 30.3366H67.0471L71.075 37.6015H74.1135C72.2953 34.3207 69.849 29.9084 69.2862 28.8907L76.2352 16.358H89.8917C90.5427 17.5303 96.1327 27.6097 96.7837 28.7828C96.3554 29.5559 93.7843 34.1907 91.8927 37.6015H94.9336L99.8246 28.7828L91.4106 13.6167H76.032L68.4827 0H51.6628L43.9894 13.8435H28.5864L20.1748 29.0139L24.9377 37.6015L27.977 37.6015ZM53.1824 2.74133H66.9638C67.5984 3.88646 72.925 13.4926 73.7937 15.06L66.8447 27.5943H53.1824C52.5315 26.4203 46.9455 16.3427 46.2946 15.1687C46.9455 13.9955 52.5315 3.91448 53.1824 2.74133Z" fill="#FF7D00"/>
<path d="M4.62755 93.3793C4.63061 93.1502 4.56897 92.9248 4.44973 92.7292C4.32667 92.562 4.1634 92.4287 3.97507 92.3416C3.78674 92.2544 3.57945 92.2163 3.37244 92.2307C1.8057 92.2307 1.49408 93.691 1.49408 94.679C1.45963 95.3002 1.64923 95.9132 2.02841 96.4064C2.22209 96.6074 2.45906 96.7616 2.72127 96.8573C2.98349 96.9529 3.26407 96.9875 3.54166 96.9584C3.89635 96.9768 4.25158 96.9347 4.59219 96.8341V95.4803H3.34571V94.4119H5.97193V97.6264C5.21627 97.8854 4.42011 98.0059 3.62169 97.9821C2.15307 97.9821 1.39631 97.6264 0.889021 97.1279C0.297619 96.471 -0.00964124 95.6065 0.0344378 94.7236C0.0344378 92.4442 1.45875 91.2242 3.40818 91.2242C3.80942 91.2001 4.21129 91.2596 4.58829 91.3991C4.9653 91.5386 5.30919 91.7549 5.59814 92.0344C5.91534 92.4089 6.08046 92.8889 6.06084 93.3793L4.62755 93.3793Z" fill="#FF7D00"/>
<path d="M15.7595 91.4206V95.3381C15.7595 96.0412 15.8127 96.9228 17.157 96.9228C17.3951 96.9409 17.6339 96.8991 17.8516 96.8011C18.0693 96.7031 18.2589 96.5521 18.4032 96.3618C18.5844 96.0272 18.6561 95.6442 18.6081 95.2667V91.4205H19.9521V95.4357C19.9521 97.3504 18.43 97.9649 17.1303 97.9649C16.6658 97.9967 16.2007 97.9114 15.7777 97.7169C15.3547 97.5223 14.9872 97.2247 14.7089 96.8514C14.4417 96.3686 14.3269 95.8161 14.3798 95.2667V91.4205L15.7595 91.4206Z" fill="#FF7D00"/>
<path d="M28.3965 91.4116H29.803V96.7449H32.5624V97.84H28.3965L28.3965 91.4116Z" fill="#FF7D00"/>
<path d="M40.4717 91.4116H44.6197V92.4443H41.8514V94.0289H44.433V95.0978H41.8514V97.84H40.4717V91.4116Z" fill="#FF7D00"/>
<path d="M65.7617 93.5037C65.7349 93.2812 65.6546 92.3729 64.7203 92.3729C63.6963 92.3729 63.2693 93.4413 63.2693 94.7683C63.2693 95.1508 63.2693 96.9763 64.6133 96.9763C64.7718 96.9805 64.9294 96.9512 65.0759 96.8906C65.2223 96.8299 65.3544 96.7391 65.4635 96.624C65.5726 96.509 65.6563 96.3723 65.7093 96.2228C65.7622 96.0734 65.7831 95.9144 65.7706 95.7564H67.2217C67.2281 96.3162 67.0212 96.8574 66.643 97.2702C66.3962 97.5127 66.102 97.7019 65.7789 97.826C65.4559 97.95 65.1107 98.0062 64.765 97.9911C62.548 97.9911 61.8271 96.353 61.8271 94.7594C61.8271 92.7203 62.9666 91.3671 64.7739 91.3671C66.1804 91.3671 67.1682 92.2218 67.1682 93.5037H65.7617Z" fill="#FF7D00"/>
<path d="M78.0499 91.2689C78.4669 91.248 78.8836 91.3148 79.2731 91.4652C79.6626 91.6155 80.0162 91.8459 80.311 92.1415C80.8629 92.8258 81.1532 93.6842 81.13 94.5631C81.1572 95.4712 80.8712 96.3611 80.32 97.0833C80.0229 97.3863 79.6662 97.6243 79.2723 97.7821C78.8785 97.9399 78.4562 98.0141 78.0322 98C77.6125 98.0144 77.1943 97.9437 76.8027 97.7923C76.4111 97.6409 76.0541 97.4119 75.7533 97.119C75.2013 96.443 74.9192 95.5865 74.9611 94.7147C74.9611 93.0052 75.7354 91.2689 78.0499 91.2689ZM76.8837 96.4689C77.0188 96.6463 77.1966 96.7867 77.4005 96.877C77.6044 96.9673 77.8278 97.0045 78.0499 96.9852C78.2855 97.0039 78.5217 96.9582 78.7334 96.8532C78.9451 96.7481 79.1242 96.5875 79.2518 96.3886C79.5853 95.8347 79.7377 95.1905 79.6878 94.5458C79.6949 94.1569 79.6409 93.7693 79.5278 93.3972C79.4488 93.0685 79.2603 92.7766 78.9933 92.5694C78.7263 92.3623 78.3967 92.2522 78.0589 92.2575C77.833 92.2503 77.6085 92.2956 77.403 92.3898C77.1976 92.484 77.0168 92.6246 76.8748 92.8006C76.5154 93.3545 76.3496 94.0119 76.4032 94.6701C76.366 95.3058 76.5345 95.9365 76.8837 96.4689Z" fill="#FF7D00"/>
<path d="M92.3783 91.4027L94.6126 97.84H93.224L92.7613 96.451H90.2153L89.7342 97.84H88.417L90.7405 91.4027H92.3783ZM92.414 95.4095L91.5237 92.6668L90.571 95.4095H92.414Z" fill="#FF7D00"/>
<path d="M103.466 95.783C103.439 95.9447 103.449 96.1105 103.498 96.2673C103.546 96.424 103.63 96.5674 103.743 96.6859C103.856 96.8044 103.996 96.8948 104.15 96.9498C104.304 97.0049 104.47 97.0231 104.632 97.003C105.38 97.003 105.852 96.6467 105.852 96.1037C105.852 95.5338 105.451 95.4357 104.632 95.24C103.101 94.8569 102.264 94.403 102.264 93.2901C102.264 92.2307 103.021 91.2956 104.81 91.2956C105.17 91.2683 105.531 91.322 105.866 91.453C106.202 91.584 106.504 91.7888 106.751 92.0523C107.006 92.3959 107.135 92.8175 107.116 93.2455H105.79C105.793 93.1104 105.769 92.976 105.717 92.8512C105.665 92.7264 105.587 92.614 105.489 92.5215C105.39 92.4289 105.273 92.3583 105.146 92.3144C105.018 92.2704 104.882 92.254 104.748 92.2664C104.107 92.2664 103.688 92.6132 103.688 93.139C103.688 93.7351 104.161 93.8421 105.086 94.0735C106.199 94.3406 107.294 94.6434 107.294 95.899C107.294 97.0566 106.332 97.9911 104.552 97.9911C102.086 97.9911 102.068 96.4064 102.06 95.7831L103.466 95.783Z" fill="#FF7D00"/>
<path d="M116.664 92.471H114.75V91.4027H119.966V92.471H118.052V97.84H116.664V92.471Z" fill="#FF7D00"/>
</g>
<defs>
<clipPath id="clip0_11739_372">
<rect width="120" height="98" fill="white"/>
</clipPath>
</defs>
</svg>
