<svg width="24" height="24" viewBox="0 0 24 24" fill="none" xmlns="http://www.w3.org/2000/svg">
<path d="M18.3802 11.1985C18.3304 9.52667 18.0745 7.8674 17.6183 6.25828C18.4009 5.98264 19.156 5.63419 19.8735 5.21752C21.3191 6.89247 22.1882 8.98756 22.3528 11.1939H18.3802V11.1985ZM17.6183 17.7371C18.0749 16.1281 18.3308 14.4688 18.3802 12.7969H22.365C22.1976 15.0026 21.3289 17.0969 19.8857 18.7733C19.1635 18.3597 18.4035 18.0129 17.6183 17.7371ZM17.088 19.2609C17.6395 19.4557 18.1767 19.6889 18.6956 19.9589C17.82 20.6928 16.8301 21.2786 15.7653 21.6929C16.3041 20.9373 16.7493 20.1192 17.091 19.2564L17.088 19.2609ZM6.90743 19.2609C7.24766 20.1241 7.69127 20.9427 8.22857 21.699C7.16374 21.2853 6.17465 20.6984 5.30134 19.9619C5.81909 19.6874 6.35642 19.4516 6.90896 19.2564L6.90743 19.2609ZM5.61981 12.8C5.66958 14.4718 5.92548 16.1311 6.38172 17.7402C5.59909 18.0158 4.84403 18.3643 4.12648 18.7809C2.67867 17.105 1.80743 15.0084 1.64115 12.8H5.61981ZM6.38172 6.26133C5.92513 7.87037 5.66922 9.52969 5.61981 11.2015H1.64115C1.80706 8.99708 2.67366 6.90347 4.11429 5.22667C4.83651 5.64026 5.59495 5.98709 6.38019 6.26286L6.38172 6.26133ZM6.912 4.73752C6.36046 4.5428 5.82326 4.30959 5.30439 4.03962C6.17743 3.3067 7.16543 2.72285 8.22857 2.31162C7.69224 3.0661 7.24914 3.8827 6.90896 4.74362L6.912 4.73752ZM15.7684 2.31619C16.8341 2.72869 17.8242 3.31463 18.6987 4.05028C18.1806 4.32194 17.6433 4.5552 17.091 4.74819C16.7519 3.88617 16.3077 3.06932 15.7684 2.31619ZM12.8 5.57409V1.77676C14.1115 2.53364 15.0966 3.74889 15.5657 5.18857C14.6569 5.39817 13.7315 5.52718 12.8 5.57409ZM12.8 11.1985V7.17257C13.9108 7.12686 15.0147 6.97376 16.096 6.71543C16.5041 8.17931 16.7338 9.68712 16.7802 11.2061H12.8V11.1985ZM12.8 16.8274V12.8H16.7802C16.7338 14.319 16.5041 15.8268 16.096 17.2907C15.0148 17.0308 13.911 16.8746 12.8 16.8274ZM12.8 18.4259C13.7314 18.472 14.657 18.6005 15.5657 18.8099C15.0969 20.2501 14.1117 21.466 12.8 22.2232V18.4259ZM11.197 18.4259V22.2232C9.88551 21.4664 8.90039 20.2511 8.43124 18.8114C9.34051 18.6017 10.265 18.4727 11.197 18.4259ZM11.197 12.8015V16.8274C10.0863 16.8755 8.98274 17.0285 7.90096 17.2846C7.49391 15.8226 7.26469 14.3169 7.21829 12.8H11.1985L11.197 12.8015ZM11.197 7.17257V11.1985H7.21829C7.26446 9.67847 7.49419 8.16963 7.90248 6.70476C8.98348 6.96669 10.0858 7.12336 11.197 7.17257ZM11.197 5.57409C10.2655 5.528 9.34 5.3995 8.43124 5.19009C8.89888 3.74876 9.88502 2.53238 11.1985 1.77676L11.197 5.57409ZM12 9.67833e-08C9.62663 9.67833e-08 7.30655 0.703788 5.33316 2.02236C3.35977 3.34094 1.8217 5.21508 0.913451 7.4078C0.00519943 9.60051 -0.232441 12.0133 0.230582 14.3411C0.693605 16.6689 1.83649 18.807 3.51472 20.4853C5.19295 22.1635 7.33115 23.3064 9.65892 23.7694C11.9867 24.2324 14.3995 23.9948 16.5922 23.0865C18.7849 22.1783 20.6591 20.6402 21.9776 18.6668C23.2962 16.6934 24 14.3734 24 12C24.0002 10.4241 23.6899 8.86356 23.087 7.40756C22.484 5.95156 21.6001 4.62861 20.4857 3.51427C19.3714 2.39993 18.0484 1.51602 16.5924 0.913038C15.1364 0.310052 13.5759 -0.000200058 12 9.67833e-08Z" fill="#345719"/>
</svg>
