<svg width="20" height="20" viewBox="0 0 20 20" fill="none" xmlns="http://www.w3.org/2000/svg">
<path d="M13.75 0C13.2461 0 12.7891 0.304687 12.5938 0.773438C12.3984 1.24219 12.5078 1.77734 12.8633 2.13672L14.4805 3.75L7.86719 10.3672C7.37891 10.8555 7.37891 11.6484 7.86719 12.1367C8.35547 12.625 9.14844 12.625 9.63672 12.1367L16.25 5.51953L17.8672 7.13672C18.2266 7.49609 18.7617 7.60156 19.2305 7.40625C19.6992 7.21094 20.0039 6.75781 20.0039 6.25V1.25C20.0039 0.558594 19.4453 0 18.7539 0L13.75 0ZM3.125 1.25C1.39844 1.25 0 2.64844 0 4.375V16.875C0 18.6016 1.39844 20 3.125 20H15.625C17.3516 20 18.75 18.6016 18.75 16.875V12.5C18.75 11.8086 18.1914 11.25 17.5 11.25C16.8086 11.25 16.25 11.8086 16.25 12.5V16.875C16.25 17.2188 15.9688 17.5 15.625 17.5H3.125C2.78125 17.5 2.5 17.2188 2.5 16.875V4.375C2.5 4.03125 2.78125 3.75 3.125 3.75H7.5C8.19141 3.75 8.75 3.19141 8.75 2.5C8.75 1.80859 8.19141 1.25 7.5 1.25H3.125Z" fill="#005598"/>
</svg>
