<svg width="15" height="15" viewBox="0 0 15 15" fill="none" xmlns="http://www.w3.org/2000/svg">
<g clip-path="url(#clip0_11657_900)">
<path d="M3.49149 4.82568H0.480217C0.346572 4.82568 0.238281 4.93402 0.238281 5.06762V14.7416C0.238281 14.8752 0.346572 14.9835 0.480217 14.9835H3.49149C3.62514 14.9835 3.73343 14.8752 3.73343 14.7416V5.06762C3.73343 4.93402 3.62514 4.82568 3.49149 4.82568Z" fill="white"/>
<path d="M1.98706 0.0166016C0.891387 0.0166016 0 0.907021 0 2.00149C0 3.09644 0.891387 3.9872 1.98706 3.9872C3.08187 3.9872 3.97253 3.09639 3.97253 2.00149C3.97258 0.907021 3.08187 0.0166016 1.98706 0.0166016Z" fill="white"/>
<path d="M11.1511 4.58545C9.94171 4.58545 9.04766 5.10537 8.50539 5.69613V5.06782C8.50539 4.93422 8.3971 4.82588 8.26345 4.82588H5.37963C5.24599 4.82588 5.1377 4.93422 5.1377 5.06782V14.7418C5.1377 14.8754 5.24599 14.9837 5.37963 14.9837H8.38432C8.51797 14.9837 8.62626 14.8754 8.62626 14.7418V9.9554C8.62626 8.34251 9.06436 7.71416 10.1887 7.71416C11.4132 7.71416 11.5105 8.72148 11.5105 10.0384V14.7418C11.5105 14.8754 11.6188 14.9837 11.7524 14.9837H14.7582C14.8919 14.9837 15.0001 14.8754 15.0001 14.7418V9.43548C15.0001 7.03717 14.5428 4.58545 11.1511 4.58545Z" fill="white"/>
</g>
<defs>
<clipPath id="clip0_11657_900">
<rect width="15" height="15" fill="white"/>
</clipPath>
</defs>
</svg>
