<svg width="13" height="16" viewBox="0 0 13 16" fill="none" xmlns="http://www.w3.org/2000/svg">
<path d="M7.07363 15.6405C8.67676 13.629 12.333 8.7539 12.333 6.01557C12.333 2.69447 9.64551 0 6.33301 0C3.02051 0 0.333008 2.69447 0.333008 6.01557C0.333008 8.7539 3.98926 13.629 5.59238 15.6405C5.97676 16.1198 6.68926 16.1198 7.07363 15.6405ZM6.33301 4.01038C6.86344 4.01038 7.37215 4.22164 7.74722 4.59768C8.12229 4.97373 8.33301 5.48376 8.33301 6.01557C8.33301 6.54738 8.12229 7.0574 7.74722 7.43345C7.37215 7.8095 6.86344 8.02076 6.33301 8.02076C5.80257 8.02076 5.29387 7.8095 4.91879 7.43345C4.54372 7.0574 4.33301 6.54738 4.33301 6.01557C4.33301 5.48376 4.54372 4.97373 4.91879 4.59768C5.29387 4.22164 5.80257 4.01038 6.33301 4.01038Z" fill="white"/>
</svg>
