<svg width="33" height="28" viewBox="0 0 33 28" fill="none" xmlns="http://www.w3.org/2000/svg">
<path d="M12.5 20.8625L19.375 14L12.5 7.1375V10.5C12.5 11.3313 11.8312 12 11 12H3.5V16H11C11.8312 16 12.5 16.6688 12.5 17.5V20.8625ZM22.5 14C22.5 14.7188 22.2125 15.4062 21.7063 15.9125L14.45 23.15C13.9062 23.6938 13.1687 24 12.4 24C10.8 24 9.5 22.7 9.5 21.1V19H3.5C1.84375 19 0.5 17.6562 0.5 16V12C0.5 10.3438 1.84375 9 3.5 9H9.5V6.9C9.5 5.3 10.8 4 12.4 4C13.1687 4 13.9062 4.30625 14.45 4.85L21.7063 12.0875C22.2125 12.5938 22.5 13.2812 22.5 14ZM22 25H27C28.3812 25 29.5 23.8813 29.5 22.5V5.5C29.5 4.11875 28.3812 3 27 3H22C21.1687 3 20.5 2.33125 20.5 1.5C20.5 0.66875 21.1687 0 22 0H27C30.0375 0 32.5 2.4625 32.5 5.5V22.5C32.5 25.5375 30.0375 28 27 28H22C21.1687 28 20.5 27.3312 20.5 26.5C20.5 25.6688 21.1687 25 22 25Z" fill="#345719"/>
</svg>
