<svg width="20" height="20" viewBox="0 0 20 20" fill="none" xmlns="http://www.w3.org/2000/svg">
<path d="M8.47656 15.6641L13.4766 10.6641C13.8438 10.2969 13.8438 9.70312 13.4766 9.33984L8.47656 4.33594C8.10938 3.96875 7.51563 3.96875 7.15234 4.33594C6.78906 4.70312 6.78516 5.29687 7.15234 5.66016L10.5508 9.05859L0.9375 9.0625C0.417969 9.0625 0 9.48047 0 10C0 10.5195 0.417969 10.9375 0.9375 10.9375H10.5508L7.15234 14.3359C6.78516 14.7031 6.78516 15.2969 7.15234 15.6602C7.51953 16.0234 8.11328 16.0273 8.47656 15.6602V15.6641ZM13.4375 3.125H16.5625C17.4258 3.125 18.125 3.82422 18.125 4.6875V15.3125C18.125 16.1758 17.4258 16.875 16.5625 16.875H13.4375C12.918 16.875 12.5 17.293 12.5 17.8125C12.5 18.332 12.918 18.75 13.4375 18.75H16.5625C18.4609 18.75 20 17.2109 20 15.3125V4.6875C20 2.78906 18.4609 1.25 16.5625 1.25H13.4375C12.918 1.25 12.5 1.66797 12.5 2.1875C12.5 2.70703 12.918 3.125 13.4375 3.125Z" fill="white"/>
</svg>
