<svg width="274" height="66" viewBox="0 0 274 66" fill="none" xmlns="http://www.w3.org/2000/svg">
<g clip-path="url(#clip0_11633_417)">
<path d="M128.645 52.6017C124.638 52.6017 122.318 51.7631 118.1 51.3438L116.413 51.239V48.6184C116.413 46.6267 116.413 42.224 116.413 42.224C116.413 42.224 117.046 42.224 117.257 42.3289C118.627 48.5135 120.631 50.8197 128.856 50.8197C132.441 50.8197 138.662 49.0377 138.662 44.3205C138.662 40.0227 133.706 38.3455 130.226 37.1924C125.798 35.7249 115.991 33.6284 115.991 25.9762C115.991 20.2108 123.162 17.4854 129.066 17.4854C132.968 17.4854 134.971 17.7998 139.189 18.6384L141.193 18.9529V27.3389C141.193 27.3389 140.665 27.3389 140.349 27.1292C139.084 21.4687 137.291 19.3722 129.488 19.3722C126.219 19.3722 120.42 20.9446 120.42 24.8231C120.42 27.1292 123.162 28.8064 125.798 29.9595C131.175 32.3705 143.091 34.1525 143.091 42.6433C143.091 49.7714 135.182 52.6017 128.645 52.6017Z" fill="#CF7119"/>
<path d="M177.358 27.7585C177.042 27.7585 176.726 27.7585 176.515 27.6537C175.249 21.8884 171.032 18.9533 164.81 18.9533C157.007 18.9533 150.997 25.1379 150.997 33.8384C150.997 42.6437 157.535 50.6104 166.497 50.6104C170.926 50.6104 174.617 48.6187 177.147 45.2643L178.307 45.5788C175.882 51.0297 170.188 52.6021 164.81 52.6021C155.531 52.6021 145.83 45.7884 145.83 35.4108C145.83 24.4042 155.637 17.0664 166.392 17.0664C170.715 17.0664 174.406 18.0098 177.464 20.2112L177.358 27.7585Z" fill="#CF7119"/>
<path d="M189.483 34.8869V45.7887C189.483 46.9418 189.589 47.8852 189.8 48.619C190.116 49.7721 193.49 49.8769 195.81 49.8769H199.079C204.14 49.8769 209.518 49.3528 210.572 43.6922L211.416 43.797C211.1 46.5225 210.994 50.401 208.78 51.6589H181.786C181.259 51.6589 180.626 51.6589 180.099 51.5541V50.8203C182.946 50.6107 184.633 50.1914 184.633 46.7321V22.832C184.633 19.4776 182.946 18.9535 180.099 18.7439V18.0101C180.626 17.9053 181.153 17.9053 181.786 17.9053H205.827H209.202C209.202 17.9053 209.729 20.3162 209.096 25.1382H208.463C206.882 20.4211 206.355 19.6873 200.555 19.6873H192.541C191.17 19.6873 189.589 19.8969 189.589 21.4693V32.7904H200.871C204.246 32.7904 204.773 31.218 204.984 28.2829H205.722C205.827 28.8071 205.827 29.3312 205.827 29.9601V37.822C205.827 38.3461 205.827 38.9751 205.722 39.4992H204.984C204.667 36.1448 204.246 34.8869 200.239 34.8869H189.483Z" fill="#CF7119"/>
<path d="M274.158 42.3279C274.158 33.8371 262.243 32.0551 256.865 29.6441C254.335 28.491 251.488 26.8138 251.488 24.5077C251.488 20.6291 257.182 19.0568 260.556 19.0568C268.359 19.0568 270.152 21.1533 271.417 26.8138C271.628 26.9186 271.839 27.0235 272.26 27.0235C272.471 26.709 272.471 25.0318 272.471 23.7739V22.3063C272.471 20.8388 272.26 19.4761 272.26 18.6375C271.944 18.5326 271.311 18.4278 270.573 18.323H270.257C266.039 17.4844 264.036 17.1699 260.134 17.1699C254.229 17.1699 247.059 19.8954 247.059 25.6607C247.059 33.313 256.865 35.4095 261.294 36.877C264.774 38.0301 269.73 39.7073 269.73 44.0051C269.73 46.1016 268.464 47.674 266.777 48.7222C266.672 48.8271 266.566 48.8271 266.356 48.9319C266.25 48.9319 266.25 49.0367 266.145 49.0367C265.09 49.5608 261.716 50.7139 257.182 50.2946C252.648 49.8753 249.59 48.5126 247.692 47.3595C247.586 47.2547 247.586 47.2547 247.481 47.2547C245.794 46.2064 245.161 45.263 245.161 45.263C241.998 42.2231 239.678 38.2397 237.463 34.1516C241.365 32.8937 244.423 30.5875 244.423 26.08C244.423 18.7423 235.249 17.694 229.871 17.694H215.109C214.582 17.694 213.949 17.694 213.422 17.7989V18.5326C216.269 18.7423 217.956 19.2664 217.956 22.6208V46.5209C217.956 49.9801 216.269 50.5043 213.422 50.6091V51.3429C213.949 51.4477 214.476 51.4477 215.109 51.4477H225.759C226.286 51.4477 226.919 51.4477 227.446 51.3429V50.6091C224.072 50.2946 222.807 49.8753 222.807 45.892V35.4095C223.966 35.5143 225.232 35.5143 226.392 35.5143C227.657 35.5143 229.133 35.4095 230.609 35.4095C232.718 35.4095 233.984 36.877 234.406 37.506C236.936 41.9086 239.151 45.5775 243.158 48.5126C247.164 51.4477 253.069 52.7056 258.025 52.7056C259.712 52.7056 261.294 52.6008 262.665 52.3911C265.512 51.9718 268.359 50.8187 270.573 49.2464C270.679 49.1415 270.784 49.0367 270.784 49.0367C272.788 47.8836 274.158 45.5775 274.158 42.3279ZM226.919 33.9419C225.548 33.9419 224.072 33.8371 222.596 33.8371V21.1533C222.596 20.0002 222.912 19.7905 226.813 19.7905C232.402 19.7905 238.729 20.6291 238.729 26.6042C238.729 33.6274 231.348 33.9419 226.919 33.9419Z" fill="#CF7119"/>
<path d="M73.8127 50.8198C78.0305 49.5619 81.8265 47.8847 86.3607 46.8365C89.5241 46.1027 93.9528 45.7882 97.0107 46.8365C98.1706 47.2558 99.1196 47.7799 99.5414 48.6185C92.6874 45.6834 82.9864 50.715 75.9216 52.6018C67.486 54.8032 60.3157 53.0211 60.7374 50.6102C62.53 53.3356 69.4894 52.1825 73.8127 50.8198Z" fill="#557122"/>
<path d="M29.5247 55.4322C24.5688 54.0694 20.1401 52.1826 14.8678 51.2392C11.1772 50.4006 6.22129 50.4006 2.74158 51.9729C1.37079 52.6019 0.421782 53.4405 0 54.4887C7.59208 50.0861 19.0856 55.8515 27.3104 57.7383C40.4911 60.8831 47.6614 54.8032 47.0287 51.6585C45.1307 55.4322 34.5861 56.7949 29.5247 55.4322Z" fill="#557122"/>
<path d="M30.8957 50.8198C26.6779 49.5619 22.8818 47.8847 18.3477 46.8365C15.1843 46.1027 10.7556 45.7882 7.69768 46.8365C6.53778 47.2558 5.58877 47.7799 5.16699 48.6185C12.0209 45.6834 21.7219 50.715 28.8922 52.6018C37.3279 54.8032 44.4982 53.0211 44.0764 50.6102C42.2838 53.3356 35.219 52.1825 30.8957 50.8198Z" fill="#557122"/>
<path fill-rule="evenodd" clip-rule="evenodd" d="M77.5017 57.738C88.468 55.6415 97.1145 50.0858 104.707 54.4885C104.285 53.4402 103.336 52.6016 101.965 51.9727C98.4853 50.4003 93.5294 50.4003 89.8388 51.1341C84.5665 52.1823 80.1378 53.9643 75.1819 55.3271C71.1749 56.4801 65.1646 56.8994 62.0012 54.8029C60.6304 53.8595 59.3651 52.0775 58.416 50.4003C57.8888 49.352 56.0962 45.2639 55.0418 42.8529C53.9873 40.4419 52.8274 38.5551 51.1403 35.9344C49.0314 32.7897 44.7081 30.798 44.7081 30.798C44.7081 30.798 47.0279 31.0077 50.4022 33.4186C52.4057 34.8862 53.8819 36.773 55.1472 38.7647C56.4126 40.8612 57.5725 44.4253 57.5725 44.4253C57.5725 44.4253 55.9908 38.7647 60.3141 38.5551C61.0522 38.8695 65.7972 41.595 66.5354 41.6998C67.8007 41.9095 68.8552 41.1757 70.1205 41.3853C71.3858 41.595 72.2294 42.6432 73.6002 42.4336C74.4438 42.1191 76.9744 40.3371 77.5017 39.813C78.0289 39.3937 78.2398 38.3454 79.0834 38.2406C80.0324 38.1358 80.5596 38.9744 81.4032 39.2888C82.0358 39.4985 85.621 40.1274 86.4645 40.1274C87.6245 40.1274 88.7843 39.813 89.9442 39.813C92.0532 39.813 93.2131 39.184 95.2165 38.7647C96.0601 37.9261 95.7438 36.8779 96.6928 36.3537C98.2744 35.4103 99.0126 36.773 101.016 36.2489C101.438 35.62 101.649 35.2007 101.543 34.5717C101.332 33.1042 99.3289 33.209 98.6962 32.1607C99.118 31.1125 100.383 30.2739 99.5398 28.7015C98.3799 27.8629 98.4853 27.7581 97.0091 27.1291C96.1655 26.7098 92.1586 25.452 91.4205 23.7748C91.9477 22.8313 92.6858 22.2024 92.4749 20.5252C91.6314 19.6866 90.4715 19.7914 88.9952 19.2673C88.1517 18.9528 86.9918 17.9046 85.4101 17.7997C83.3012 17.7997 79.716 19.8962 79.3997 17.6949C79.2943 16.6467 80.5596 16.437 80.2433 15.2839C79.9269 14.5502 78.767 14.655 77.9235 14.4453C78.1344 12.1392 75.2873 14.5502 74.6546 13.0826C75.0764 11.6151 75.0764 9.62338 73.9165 8.88961C73.073 8.78478 71.9131 7.42206 71.9131 6.79311C71.9131 6.05933 71.2804 5.53521 71.3858 4.80143C70.6477 4.27731 69.5933 3.96283 68.2225 4.06766C67.2735 3.54353 67.3789 2.39046 66.1136 2.39046C65.1646 2.39046 64.6373 3.33388 63.7938 3.12423C62.7393 2.91458 62.5284 0.818085 61.1576 0.818085C59.7868 0.818085 59.5759 2.70493 58.416 2.80976C57.7834 2.91458 56.9398 2.28563 56.4126 2.39046C55.0418 2.60011 51.773 3.96283 50.6131 4.06766C49.7695 2.60011 49.3477 0.398785 47.5552 0.50361C46.6061 0.608435 46.1844 2.18081 45.1299 2.39046C44.2864 2.49528 43.7591 1.97116 43.1264 1.97116C42.1774 1.97116 41.7557 2.07598 40.8066 2.49528C40.5958 4.17248 41.2284 7.10758 39.5413 7.31723C38.0651 7.52688 36.2725 4.59178 34.9017 4.59178C34.1636 4.59178 33.7418 5.32556 32.8982 5.64003C32.2656 5.32556 31.5274 5.11591 30.473 5.22073C28.3641 6.16416 30.0512 9.93786 30.0512 11.6151C28.7859 11.3006 27.8368 9.83303 26.3606 10.0427C25.517 10.1475 24.9898 10.8813 24.3571 11.6151C24.3571 12.3488 25.3062 13.0826 25.0953 14.026C24.7789 15.8081 20.6666 15.8081 20.8774 18.0094C21.1938 20.3155 24.4626 18.0094 25.517 20.1059C24.9898 20.8397 24.2517 20.4204 23.5136 21.1541C22.7755 21.7831 22.67 22.9362 21.6156 23.2506C20.5611 23.5651 19.4012 23.041 18.3468 23.2506C17.7141 23.3555 17.1869 24.0892 16.6596 24.2989C16.027 24.4037 15.2888 24.0892 14.6562 24.2989C13.8126 24.5085 13.0745 25.452 12.2309 25.8713C10.9656 26.3954 9.59478 26.605 9.06755 27.5485C9.17299 28.7015 10.5438 28.5967 10.6492 29.6449C10.3329 30.4835 9.06755 30.4835 8.75121 31.3221C8.9621 31.8463 9.59478 32.58 10.4383 32.7897C12.2309 33.1042 15.2888 31.3221 15.8161 33.5235C15.6052 35.2007 13.2854 34.5717 11.5982 34.991C10.7547 35.2007 9.70022 36.0393 8.85666 36.4586C7.27497 37.0875 6.11507 37.1923 6.22052 38.4502C6.32597 39.4985 7.38042 39.813 8.64577 39.9178C9.70022 40.6516 10.0166 41.595 11.4928 41.595C12.7581 41.6998 16.2378 41.8046 16.6596 43.0625C18.9794 43.377 20.6666 40.966 22.9864 41.1757C24.0408 41.2805 24.9898 42.4336 26.0443 42.6432C28.8913 43.2722 30.3675 40.5467 32.7928 39.813C34.1636 39.3937 35.1126 38.8695 37.6433 39.3937C40.2794 39.9178 43.97 42.8529 44.919 44.2156C48.8205 49.7713 49.5586 53.8595 49.2423 55.0126C49.0314 55.956 46.6062 59.8345 41.123 61.6166C35.5344 63.1889 25.3062 60.8828 25.3062 60.8828C25.3062 60.8828 34.9017 66.6482 44.7081 61.931C48.7151 60.0442 50.1913 57.2139 50.9294 57.3187C51.2458 57.3187 52.4057 60.3587 53.5656 61.4069C58.2052 65.8096 66.1136 65.4951 66.1136 65.4951C66.1136 65.4951 60.4195 64.7613 56.4126 61.931C54.5146 60.5683 53.1438 58.1573 52.4057 56.2705C51.2458 53.2306 49.5586 46.2073 46.7116 42.6432C45.6571 41.2805 42.7047 37.2972 39.6467 35.4103C37.6433 34.1524 35.4289 33.3138 35.4289 33.3138C35.4289 33.3138 39.0141 33.5235 42.2829 35.8296C44.2863 37.2972 45.3408 38.1358 47.7661 41.3853C49.7695 44.006 53.9873 52.7064 54.62 54.3836C54.8309 54.8029 56.518 57.738 56.8344 58.0525C57.8888 59.2056 59.4705 61.4069 67.0626 62.2455C74.6547 63.0841 88.9952 58.5766 88.9952 58.5766C88.9952 58.5766 79.9269 60.4635 72.5457 60.778C67.2735 61.0924 64.7428 60.5683 62.7393 59.7297C60.7358 58.8911 58.5215 57.4236 57.1507 54.5933C56.518 53.2306 55.7799 51.763 54.4091 48.9327C53.1438 46.1025 50.7185 40.7564 47.1334 36.9827C44.3918 34.0476 41.2284 32.2656 41.2284 32.2656C41.2284 32.2656 42.4938 31.9511 47.3443 35.5151C50.824 38.0309 54.8309 45.6832 56.3071 48.9327C57.6779 52.1823 58.5215 53.1257 59.7868 54.4885C61.0522 55.8512 62.6339 56.8994 64.4264 57.5284C67.8007 58.7863 72.0185 58.7863 77.5017 57.738Z" fill="#557122"/>
</g>
<defs>
<clipPath id="clip0_11633_417">
<rect width="274" height="65" fill="white" transform="translate(0 0.5)"/>
</clipPath>
</defs>
</svg>
