<svg width="25" height="33" viewBox="0 0 25 33" fill="none" xmlns="http://www.w3.org/2000/svg">
<path d="M4.5 29.333C3.95 29.333 3.5 28.883 3.5 28.333V4.33301C3.5 3.78301 3.95 3.33301 4.5 3.33301H14.5V8.33301C14.5 9.43926 15.3938 10.333 16.5 10.333H21.5V28.333C21.5 28.883 21.05 29.333 20.5 29.333H4.5ZM4.5 0.333008C2.29375 0.333008 0.5 2.12676 0.5 4.33301V28.333C0.5 30.5393 2.29375 32.333 4.5 32.333H20.5C22.7062 32.333 24.5 30.5393 24.5 28.333V9.98926C24.5 8.92676 24.0812 7.90801 23.3312 7.15801L17.6688 1.50176C16.9188 0.751758 15.9062 0.333008 14.8438 0.333008H4.5ZM8 16.333C7.16875 16.333 6.5 17.0018 6.5 17.833C6.5 18.6643 7.16875 19.333 8 19.333H17C17.8312 19.333 18.5 18.6643 18.5 17.833C18.5 17.0018 17.8312 16.333 17 16.333H8ZM8 22.333C7.16875 22.333 6.5 23.0018 6.5 23.833C6.5 24.6643 7.16875 25.333 8 25.333H17C17.8312 25.333 18.5 24.6643 18.5 23.833C18.5 23.0018 17.8312 22.333 17 22.333H8Z" fill="#345719"/>
</svg>
