<svg width="31" height="31" viewBox="0 0 31 31" fill="none" xmlns="http://www.w3.org/2000/svg">
<path d="M24.0004 0.333496C25.7402 0.333496 27.4088 1.02464 28.639 2.25488C29.8693 3.48511 30.5604 5.15368 30.5604 6.8935C30.5604 8.63332 29.8693 10.3019 28.639 11.5321C27.4088 12.7624 25.7402 13.4535 24.0004 13.4535C22.2606 13.4535 20.592 12.7624 19.3618 11.5321C18.1316 10.3019 17.4404 8.63332 17.4404 6.8935C17.4404 5.15368 18.1316 3.48511 19.3618 2.25488C20.592 1.02464 22.2606 0.333496 24.0004 0.333496ZM24.0004 4.70683C24.2904 4.70683 24.5685 4.59164 24.7735 4.3866C24.9786 4.18156 25.0938 3.90347 25.0938 3.6135C25.0938 3.32353 24.9786 3.04543 24.7735 2.84039C24.5685 2.63535 24.2904 2.52016 24.0004 2.52016C23.7105 2.52016 23.4324 2.63535 23.2273 2.84039C23.0223 3.04543 22.9071 3.32353 22.9071 3.6135C22.9071 3.90347 23.0223 4.18156 23.2273 4.3866C23.4324 4.59164 23.7105 4.70683 24.0004 4.70683ZM22.5427 6.8935C22.5427 7.29438 22.8707 7.62238 23.2715 7.62238V9.80905C22.8707 9.80905 22.5427 10.1371 22.5427 10.5379C22.5427 10.9388 22.8707 11.2668 23.2715 11.2668H24.0004H24.7293C25.1302 11.2668 25.4582 10.9388 25.4582 10.5379C25.4582 10.1371 25.1302 9.80905 24.7293 9.80905V6.8935C24.7293 6.49261 24.4013 6.16461 24.0004 6.16461H23.2715C22.8707 6.16461 22.5427 6.49261 22.5427 6.8935Z" fill="#345719"/>
<path d="M19.7178 17.1317C20.3799 16.3231 21.4932 16.0477 22.4541 16.4637L29.0166 19.2762C30.0479 19.7156 30.6221 20.8289 30.3877 21.9188L28.9814 28.4813C28.7471 29.5594 27.792 30.3328 26.6904 30.3328C26.333 30.3328 25.9756 30.327 25.624 30.3094H25.6182C25.0322 30.286 24.458 30.2449 23.8838 30.1805C10.7061 28.786 0.44043 17.6297 0.44043 4.08284C0.44043 2.97542 1.21387 2.02034 2.29199 1.79182L8.85449 0.385571C9.9502 0.151196 11.0576 0.725415 11.4971 1.75667L14.3096 8.31917C14.7197 9.2801 14.4502 10.3934 13.6416 11.0555L11.2627 13.0008C12.8271 15.6961 15.0771 17.9461 17.7725 19.5106L19.7178 17.1317ZM27.5576 21.7078L21.6748 19.1883L19.9521 21.286C19.0791 22.3524 17.5615 22.6278 16.3662 21.9364C13.2432 20.1258 10.6416 17.5242 8.83105 14.4012C8.13965 13.2059 8.41504 11.6883 9.48145 10.8153L11.585 9.0926L9.06543 3.20979L3.25879 4.4637C3.45801 17.1024 13.6709 27.3153 26.3096 27.5203L27.5576 21.7078Z" fill="#345719"/>
</svg>
