<svg width="24" height="25" viewBox="0 0 24 25" fill="none" xmlns="http://www.w3.org/2000/svg">
<path d="M24 22.3868L19.0189 17.4057C20.4059 15.5848 21.1492 13.355 21.1321 11.0662C21.1407 9.6762 20.8733 8.29837 20.3454 7.01256C19.8174 5.72675 19.0395 4.55855 18.0566 3.57568C17.0738 2.59282 15.9055 1.81487 14.6197 1.28693C13.3339 0.758997 11.9561 0.491584 10.5662 0.500202C9.1762 0.491584 7.79837 0.758997 6.51256 1.28693C5.22675 1.81487 4.05855 2.59282 3.07568 3.57568C2.09282 4.55855 1.31487 5.72675 0.786933 7.01256C0.258997 8.29837 -0.00841605 9.6762 0.000201852 11.0662C-0.00841605 12.4561 0.258997 13.8339 0.786933 15.1197C1.31487 16.4056 2.09282 17.5738 3.07568 18.5566C4.05855 19.5395 5.22675 20.3174 6.51256 20.8454C7.79837 21.3733 9.1762 21.6407 10.5662 21.6321C12.855 21.6492 15.0848 20.9059 16.9057 19.5189L21.8868 24.5L24 22.3868ZM3.01904 11.0662C3.00916 10.0723 3.19762 9.08647 3.5734 8.16634C3.94917 7.24622 4.50472 6.4103 5.20751 5.70751C5.9103 5.00472 6.74622 4.44917 7.66634 4.0734C8.58646 3.69762 9.5723 3.50916 10.5662 3.51904C11.56 3.50916 12.5458 3.69762 13.466 4.0734C14.3861 4.44917 15.222 5.00472 15.9248 5.70751C16.6276 6.4103 17.1831 7.24622 17.5589 8.16634C17.9347 9.08647 18.1231 10.0723 18.1133 11.0662C18.1231 12.06 17.9347 13.0458 17.5589 13.966C17.1831 14.8861 16.6276 15.722 15.9248 16.4248C15.222 17.1276 14.3861 17.6831 13.466 18.0589C12.5458 18.4347 11.56 18.6231 10.5662 18.6133C9.5723 18.6231 8.58646 18.4347 7.66634 18.0589C6.74622 17.6831 5.9103 17.1276 5.20751 16.4248C4.50472 15.722 3.94917 14.8861 3.5734 13.966C3.19762 13.0458 3.00916 12.06 3.01904 11.0662Z" fill="#345719"/>
</svg>
