<svg width="23" height="31" viewBox="0 0 23 31" fill="none" xmlns="http://www.w3.org/2000/svg">
<path d="M18.8333 4.4165H16.5417H15.9917C15.5677 2.27783 13.7172 0.666504 11.5 0.666504C9.28281 0.666504 7.43229 2.27783 7.00833 4.4165H6.45833H4.16667C2.14427 4.4165 0.5 6.09814 0.5 8.1665V26.9165C0.5 28.9849 2.14427 30.6665 4.16667 30.6665H18.8333C20.8557 30.6665 22.5 28.9849 22.5 26.9165V8.1665C22.5 6.09814 20.8557 4.4165 18.8333 4.4165ZM5.08333 7.229V8.63525C5.08333 9.41455 5.69635 10.0415 6.45833 10.0415H11.5H16.5417C17.3036 10.0415 17.9167 9.41455 17.9167 8.63525V7.229H18.8333C19.3375 7.229 19.75 7.65088 19.75 8.1665V26.9165C19.75 27.4321 19.3375 27.854 18.8333 27.854H4.16667C3.6625 27.854 3.25 27.4321 3.25 26.9165V8.1665C3.25 7.65088 3.6625 7.229 4.16667 7.229H5.08333ZM10.125 5.354C10.125 4.98104 10.2699 4.62336 10.5277 4.35964C10.7856 4.09591 11.1353 3.94775 11.5 3.94775C11.8647 3.94775 12.2144 4.09591 12.4723 4.35964C12.7301 4.62336 12.875 4.98104 12.875 5.354C12.875 5.72696 12.7301 6.08465 12.4723 6.34837C12.2144 6.6121 11.8647 6.76025 11.5 6.76025C11.1353 6.76025 10.7856 6.6121 10.5277 6.34837C10.2699 6.08465 10.125 5.72696 10.125 5.354ZM10.3141 14.4536C10.6693 14.0903 10.6693 13.4927 10.3141 13.1294C9.95885 12.7661 9.37448 12.7661 9.01927 13.1294L6.91667 15.2798L6.18906 14.5356C5.83385 14.1724 5.24948 14.1724 4.89427 14.5356C4.53906 14.8989 4.53906 15.4966 4.89427 15.8599L6.26927 17.2661C6.62448 17.6294 7.20885 17.6294 7.56406 17.2661L10.3141 14.4536ZM11.5 16.604C11.5 17.1196 11.9125 17.5415 12.4167 17.5415H16.0833C16.5875 17.5415 17 17.1196 17 16.604C17 16.0884 16.5875 15.6665 16.0833 15.6665H12.4167C11.9125 15.6665 11.5 16.0884 11.5 16.604ZM9.66667 22.229C9.66667 22.7446 10.0792 23.1665 10.5833 23.1665H16.0833C16.5875 23.1665 17 22.7446 17 22.229C17 21.7134 16.5875 21.2915 16.0833 21.2915H10.5833C10.0792 21.2915 9.66667 21.7134 9.66667 22.229ZM6.91667 23.6353C7.28134 23.6353 7.63108 23.4871 7.88894 23.2234C8.1468 22.9596 8.29167 22.602 8.29167 22.229C8.29167 21.856 8.1468 21.4984 7.88894 21.2346C7.63108 20.9709 7.28134 20.8228 6.91667 20.8228C6.55199 20.8228 6.20226 20.9709 5.94439 21.2346C5.68653 21.4984 5.54167 21.856 5.54167 22.229C5.54167 22.602 5.68653 22.9596 5.94439 23.2234C6.20226 23.4871 6.55199 23.6353 6.91667 23.6353Z" fill="#345719"/>
</svg>
