<svg width="15" height="11" viewBox="0 0 15 11" fill="none" xmlns="http://www.w3.org/2000/svg">
<path d="M14.6844 1.87977C14.5989 1.56103 14.4311 1.27017 14.1979 1.03612C13.9646 0.802074 13.674 0.632998 13.3549 0.545712C12.1875 0.231445 7.50035 0.231445 7.50035 0.231445C7.50035 0.231445 2.81254 0.231445 1.63672 0.545712C1.31704 0.631902 1.02581 0.800612 0.792382 1.03483C0.558957 1.26904 0.391595 1.56049 0.307172 1.87977C0.0954992 3.07473 -0.00717531 4.28635 0.000407578 5.49978C-0.00744093 6.71382 0.0980772 7.92596 0.315596 9.12049C0.401122 9.43923 0.568855 9.73009 0.80211 9.96414C1.03537 10.1982 1.32601 10.3673 1.64514 10.4545C2.81254 10.7688 7.50035 10.7688 7.50035 10.7688C7.50035 10.7688 12.1875 10.7688 13.364 10.4545C13.6835 10.3683 13.9746 10.1995 14.2079 9.96529C14.4412 9.73108 14.6085 9.43969 14.6928 9.12049C14.9045 7.92553 15.0072 6.71391 14.9996 5.50048C15.0074 4.28644 14.9019 3.07431 14.6844 1.87977ZM5.96723 7.72624V3.27332L9.88778 5.49978L5.96723 7.72624Z" fill="white"/>
</svg>
